<svg width="584" height="83" viewBox="0 0 584 83" fill="none" xmlns="http://www.w3.org/2000/svg">
<path fill-rule="evenodd" clip-rule="evenodd" d="M46.851 67.5014C47.4223 67.8278 48.0345 68.1543 48.6467 68.44C53.2175 70.5622 55.3397 71.9498 55.3397 74.8881C55.3397 78.0306 52.7686 80.6017 49.6261 80.6017C47.1775 80.6017 45.1369 79.0509 44.3207 76.8879C41.3415 79.9079 37.2604 81.7852 32.6896 81.7852C23.6704 81.7852 16.3652 74.48 16.3652 65.4608C16.3652 64.6038 16.4876 63.7467 16.6101 62.8897C8.24382 60.4411 1.79568 53.4624 0.326488 44.7288C0.122433 43.4637 0 42.1986 0 40.8926C0 39.5866 0.122433 38.3215 0.326488 37.0564C1.83649 28.3636 8.24382 21.3441 16.6101 18.8955C16.605 18.8597 16.5998 18.824 16.5947 18.7883C16.4776 17.9702 16.3652 17.1847 16.3652 16.3244C16.3652 7.30517 23.6704 0 32.6896 0C37.2196 0 41.3415 1.8773 44.3207 4.89732C45.1369 2.73434 47.1775 1.18352 49.6261 1.18352C52.7686 1.18352 55.3397 3.75461 55.3397 6.89705C55.3397 10.0803 53.2175 11.4679 48.6467 13.5901C48.1938 13.8014 47.7633 14.035 47.3221 14.2745C47.1669 14.3588 47.0103 14.4437 46.851 14.5287L46.8509 14.5287C46.4837 14.7328 46.1164 14.9368 45.7899 15.1409C45.5042 15.3041 45.2594 15.4674 45.0145 15.6306C44.9329 15.6714 44.8615 15.7224 44.79 15.7734C44.7186 15.8245 44.6472 15.8755 44.5656 15.9163C43.178 16.8141 41.9129 17.8752 40.6885 18.9771C40.6477 18.9975 40.6171 19.0281 40.5865 19.0587C40.5559 19.0893 40.5253 19.1199 40.4845 19.1403C39.9948 19.6301 39.505 20.1198 39.0561 20.6095C38.9949 20.6708 38.9337 20.7422 38.8725 20.8136C38.8112 20.885 38.75 20.9564 38.6888 21.0177C38.4961 21.2586 38.297 21.4932 38.0991 21.7264C37.7941 22.0859 37.4919 22.4421 37.2196 22.8133C33.4242 27.8739 31.098 34.1996 31.098 41.015C31.098 47.8305 33.3834 54.1562 37.2196 59.2167C37.6685 59.8289 38.1583 60.4411 38.6888 61.0124C38.75 61.0736 38.8112 61.145 38.8725 61.2165C38.9337 61.2879 38.9949 61.3593 39.0561 61.4205C39.3922 61.8177 39.7512 62.1692 40.1159 62.5263C40.2383 62.6461 40.3614 62.7666 40.4845 62.8897C40.5253 62.9101 40.5559 62.9407 40.5865 62.9713C40.6171 63.0019 40.6477 63.0326 40.6885 63.053C41.9129 64.1549 43.178 65.2159 44.5656 66.1138C44.6472 66.1546 44.7186 66.2056 44.79 66.2566C44.8615 66.3076 44.9329 66.3587 45.0145 66.3995C45.1369 66.4811 45.2696 66.5627 45.4022 66.6443C45.5348 66.726 45.6675 66.8076 45.7899 66.8892C45.9736 66.9912 46.147 67.0932 46.3204 67.1953C46.4939 67.2973 46.6673 67.3993 46.851 67.5014ZM103.579 19.0586C111.945 21.5073 118.393 28.486 119.862 37.2195C120.066 38.4439 120.189 39.7498 120.189 41.3006C120.189 42.6066 120.066 43.8717 119.862 45.1368C118.352 53.8296 111.945 60.8491 103.579 63.2977L103.594 63.405C103.711 64.2231 103.824 65.0085 103.824 65.8688C103.824 74.888 96.5184 82.1932 87.4992 82.1932C82.9692 82.1932 78.8473 80.3159 75.8681 77.2959C75.0519 79.4589 73.0113 81.0097 70.5627 81.0097C67.4202 81.0097 64.8491 78.4386 64.8491 75.2962C64.8491 72.1129 66.9713 70.7253 71.5421 68.6032C71.9949 68.3918 72.4254 68.1582 72.8666 67.9187C73.0219 67.8345 73.1785 67.7495 73.3378 67.6645L73.338 67.6644C73.7052 67.4604 74.0725 67.2564 74.3989 67.0523C74.6846 66.8891 74.9294 66.7259 75.1743 66.5626C75.2559 66.5218 75.3273 66.4708 75.3988 66.4198C75.4702 66.3688 75.5416 66.3177 75.6232 66.2769C77.0108 65.3791 78.2759 64.318 79.5003 63.2161C79.5411 63.1957 79.5717 63.1651 79.6023 63.1345C79.6329 63.1039 79.6635 63.0733 79.7043 63.0529L79.7045 63.0527C80.1941 62.563 80.6838 62.0734 81.1327 61.5837C81.1939 61.5225 81.2551 61.451 81.3164 61.3796C81.3776 61.3082 81.4388 61.2368 81.5 61.1756C81.6927 60.9346 81.8918 60.7 82.0897 60.4668C82.3947 60.1074 82.697 59.7511 82.9692 59.3799C86.7646 54.3193 89.0908 47.9936 89.0908 41.1782C89.0908 34.3628 86.8054 28.0371 82.9692 22.9765C82.5203 22.3643 82.0305 21.7522 81.5 21.1808C81.4388 21.1196 81.3776 21.0482 81.3164 20.9768C81.2551 20.9053 81.1939 20.8339 81.1327 20.7727C80.6838 20.2422 80.1941 19.7524 79.7043 19.3035C79.6635 19.2831 79.6329 19.2525 79.6023 19.2219C79.5717 19.1913 79.5411 19.1607 79.5003 19.1403C78.2759 18.0384 77.0108 17.0181 75.6232 16.0794C75.5416 16.0386 75.4702 15.9876 75.3988 15.9366C75.3273 15.8856 75.2559 15.8346 75.1743 15.7938C75.0519 15.7121 74.9192 15.6305 74.7866 15.5489C74.654 15.4673 74.5213 15.3857 74.3989 15.304C74.2152 15.202 74.0418 15.1 73.8683 14.9979C73.6949 14.8959 73.5214 14.7939 73.3378 14.6919C72.7665 14.3654 72.1543 14.0389 71.5421 13.7532C67.0121 11.5902 64.8491 10.2027 64.8491 7.06021C64.8491 3.91777 67.4202 1.34668 70.5627 1.34668C73.0113 1.34668 75.0519 2.89749 75.8681 5.06048C78.8473 2.04046 82.9284 0.16316 87.4992 0.16316C96.5184 0.16316 103.824 7.46832 103.824 16.4875C103.824 17.3445 103.701 18.2015 103.579 19.0585L103.579 19.0586Z" fill="#034AD8"/>
<path d="M77.9072 41.0563C77.9072 31.2208 69.9491 23.2627 60.1137 23.2627C50.2782 23.2627 42.3201 31.2208 42.3201 41.0563C42.3201 50.8917 50.2782 58.8499 60.1137 58.8499C69.9491 58.8499 77.9072 50.8917 77.9072 41.0563Z" fill="#034AD8"/>
<path fill-rule="evenodd" clip-rule="evenodd" d="M192.984 62.1016V5H182.494V62.1016H192.984ZM158.427 63.2845C163.265 63.2845 167.261 61.9963 170.415 59.4199C173.57 56.8435 175.621 53.7675 176.567 50.1921L167.34 47.1162C166.814 48.9039 165.815 50.4419 164.342 51.7301C162.87 53.0183 160.898 53.6624 158.427 53.6624C155.641 53.6624 153.288 52.6765 151.368 50.7048C149.449 48.733 148.49 46.0646 148.49 42.6995C148.49 39.3344 149.436 36.6791 151.329 34.7337C153.222 32.7882 155.562 31.8155 158.348 31.8155C162.818 31.8155 165.683 33.9975 166.945 38.3617L176.331 35.2069C175.437 31.5789 173.412 28.4898 170.258 25.9397C167.103 23.3896 163.054 22.1145 158.112 22.1145C152.433 22.1145 147.662 24.06 143.797 27.9509C139.932 31.8418 138 36.758 138 42.6995C138 48.5884 139.959 53.4915 143.876 57.4087C147.793 61.3259 152.643 63.2845 158.427 63.2845ZM233.537 57.4481C229.672 61.339 224.822 63.2845 218.986 63.2845C213.149 63.2845 208.299 61.339 204.434 57.4481C200.57 53.5572 198.637 48.641 198.637 42.6995C198.637 36.758 200.556 31.8418 204.395 27.9509C208.286 24.06 213.149 22.1145 218.986 22.1145C224.822 22.1145 229.672 24.06 233.537 27.9509C237.402 31.8418 239.334 36.758 239.334 42.6995C239.334 48.641 237.402 53.5572 233.537 57.4481ZM218.987 53.741C216.253 53.741 213.913 52.7682 211.968 50.8228C210.075 48.8773 209.128 46.1695 209.128 42.6992C209.128 39.229 210.088 36.5211 212.007 34.5756C213.926 32.6302 216.253 31.6575 218.987 31.6575C221.721 31.6575 224.048 32.6302 225.967 34.5756C227.886 36.5211 228.846 39.229 228.846 42.6992C228.846 46.1695 227.886 48.8773 225.967 50.8228C224.048 52.7682 221.721 53.741 218.987 53.741ZM265.453 61.8251C263.482 62.6927 261.392 63.1265 259.183 63.1265C254.609 63.1265 251.007 61.6674 248.378 58.7492C245.749 55.831 244.435 52.1899 244.435 47.8257V23.2973H254.924V45.6963C254.924 48.0098 255.529 49.8895 256.738 51.3354C257.948 52.7814 259.709 53.5044 262.022 53.5044C264.283 53.5044 266.071 52.8077 267.386 51.4143C268.7 50.0209 269.357 48.1675 269.357 45.854V23.2973H279.847V55.0817C279.847 57.553 279.978 59.8928 280.241 62.1011H270.225C270.015 61.0496 269.909 59.6562 269.909 57.9211C268.91 59.6562 267.425 60.9575 265.453 61.8251ZM305.098 63.0481C307.622 63.0481 309.843 62.5486 311.762 61.5495C313.682 60.5505 315.088 59.236 315.982 57.6061C315.982 59.2886 316.113 60.7871 316.376 62.1016H326.393C326.182 59.9984 326.077 57.6586 326.077 55.0822V5H315.745V27.1624C314.01 23.955 310.356 22.3513 304.782 22.3513C299.367 22.3513 294.911 24.2968 291.414 28.1877C287.918 32.0786 286.169 36.8896 286.169 42.6208C286.169 48.5098 287.944 53.3865 291.493 57.2511C295.042 61.1158 299.577 63.0481 305.098 63.0481ZM299.42 50.7052C301.208 52.6769 303.521 53.6628 306.361 53.6628C309.147 53.6628 311.435 52.6637 313.222 50.6657C315.01 48.6677 315.904 45.9598 315.904 42.5421C315.904 39.177 315.01 36.5349 313.222 34.6157C311.435 32.6966 309.147 31.737 306.361 31.737C303.574 31.737 301.274 32.7097 299.46 34.6552C297.646 36.6006 296.739 39.2559 296.739 42.621C296.739 46.0387 297.633 48.7334 299.42 50.7052ZM352.316 63.2845C357.153 63.2845 361.149 61.9963 364.304 59.4199C367.459 56.8435 369.51 53.7675 370.456 50.1921L361.228 47.1162C360.702 48.9039 359.703 50.4419 358.231 51.7301C356.759 53.0183 354.787 53.6624 352.316 53.6624C349.529 53.6624 347.176 52.6765 345.257 50.7048C343.338 48.733 342.378 46.0646 342.378 42.6995C342.378 39.3344 343.325 36.6791 345.218 34.7337C347.111 32.7882 349.45 31.8155 352.237 31.8155C356.706 31.8155 359.572 33.9975 360.834 38.3617L370.219 35.2069C369.326 31.5789 367.301 28.4898 364.146 25.9397C360.992 23.3896 356.943 22.1145 352.001 22.1145C346.322 22.1145 341.55 24.06 337.686 27.9509C333.821 31.8418 331.889 36.758 331.889 42.6995C331.889 48.5884 333.847 53.4915 337.765 57.4087C341.682 61.3259 346.532 63.2845 352.316 63.2845ZM400.285 57.4481C397.813 61.2864 394.001 63.2056 388.849 63.2056C384.853 63.2056 381.632 62.0489 379.187 59.7353C376.742 57.4218 375.52 54.6877 375.52 51.5329C375.52 48.2204 376.598 45.5651 378.753 43.5671C380.909 41.569 383.696 40.3071 387.114 39.7813L396.657 38.3617C398.602 38.0988 399.575 37.1786 399.575 35.6012C399.575 34.129 399.01 32.9197 397.879 31.9732C396.749 31.0268 395.132 30.5536 393.029 30.5536C390.82 30.5536 389.072 31.1582 387.784 32.3676C386.496 33.5769 385.773 35.0754 385.615 36.8631L376.308 34.8914C376.676 31.5263 378.333 28.5555 381.277 25.9791C384.222 23.4027 388.113 22.1145 392.95 22.1145C398.734 22.1145 402.993 23.4947 405.727 26.2552C408.461 29.0156 409.828 32.5516 409.828 36.8631V55.9496C409.828 58.2631 409.986 60.3137 410.301 62.1014H400.679C400.416 60.9447 400.285 59.3936 400.285 57.4481ZM391.056 55.3976C389.478 55.3976 388.243 54.9638 387.349 54.0963C386.455 53.2287 386.008 52.164 386.008 50.9021C386.008 48.1153 387.612 46.4854 390.819 46.0121L399.574 44.6714V46.4065C399.574 49.6139 398.772 51.9142 397.168 53.3076C395.564 54.7009 393.527 55.3976 391.056 55.3976ZM428.256 39.7815V62.1016H417.767V23.2977H427.941V28.1088C429.045 26.2159 430.622 24.77 432.673 23.7709C434.724 22.7719 436.879 22.2724 439.14 22.2724C443.715 22.2724 447.198 23.7052 449.591 26.5708C451.983 29.4364 453.179 33.1301 453.179 37.652V62.1016H442.689V39.466C442.689 37.1525 442.098 35.2859 440.915 33.8663C439.732 32.4466 437.931 31.7368 435.512 31.7368C433.304 31.7368 431.543 32.4992 430.228 34.024C428.914 35.5488 428.256 37.468 428.256 39.7815ZM471.687 62.1016V39.7815C471.687 37.468 472.344 35.5488 473.658 34.024C474.973 32.4992 476.734 31.7368 478.943 31.7368C481.361 31.7368 483.162 32.4466 484.345 33.8663C485.528 35.2859 486.12 37.1525 486.12 39.466V62.1016H496.609V37.652C496.609 33.1301 495.413 29.4364 493.021 26.5708C490.628 23.7052 487.145 22.2724 482.571 22.2724C480.31 22.2724 478.154 22.7719 476.103 23.7709C474.053 24.77 472.475 26.2159 471.371 28.1088V23.2977H461.197V62.1016H471.687ZM536.608 57.4481C532.744 61.339 527.893 63.2845 522.057 63.2845C516.221 63.2845 511.37 61.339 507.505 57.4481C503.641 53.5572 501.709 48.641 501.709 42.6995C501.709 36.758 503.628 31.8418 507.466 27.9509C511.357 24.06 516.221 22.1145 522.057 22.1145C527.893 22.1145 532.744 24.06 536.608 27.9509C540.473 31.8418 542.405 36.758 542.405 42.6995C542.405 48.641 540.473 53.5572 536.608 57.4481ZM522.058 53.741C519.324 53.741 516.984 52.7682 515.039 50.8228C513.146 48.8773 512.2 46.1695 512.2 42.6992C512.2 39.229 513.159 36.5211 515.078 34.5756C516.997 32.6302 519.324 31.6575 522.058 31.6575C524.792 31.6575 527.119 32.6302 529.038 34.5756C530.957 36.5211 531.917 39.229 531.917 42.6992C531.917 46.1695 530.957 48.8773 529.038 50.8228C527.119 52.7682 524.792 53.741 522.058 53.741ZM558.548 39.7815V62.1016H548.058V23.2977H558.232V28.1088C559.336 26.2159 560.914 24.77 562.964 23.7709C565.015 22.7719 567.171 22.2724 569.432 22.2724C574.006 22.2724 577.489 23.7052 579.882 26.5708C582.274 29.4364 583.47 33.1301 583.47 37.652V62.1016H572.981V39.466C572.981 37.1525 572.389 35.2859 571.206 33.8663C570.023 32.4466 568.222 31.7368 565.804 31.7368C563.595 31.7368 561.834 32.4992 560.519 34.024C559.205 35.5488 558.548 37.468 558.548 39.7815Z" fill="#034AD8"/>
</svg>
