<?xml version="1.0" encoding="UTF-8" standalone="no"?>
<!DOCTYPE svg PUBLIC "-//W3C//DTD SVG 1.1//EN" "http://www.w3.org/Graphics/SVG/1.1/DTD/svg11.dtd">
<svg width="100%" height="100%" viewBox="0 0 2000 2400" version="1.1" xmlns="http://www.w3.org/2000/svg" xmlns:xlink="http://www.w3.org/1999/xlink" xml:space="preserve" xmlns:serif="http://www.serif.com/" style="fill-rule:evenodd;clip-rule:evenodd;stroke-miterlimit:8;">
    <g id="OCSS-Logo" serif:id="OCSS Logo" transform="matrix(1,0,0,1,-100,-100)">
        <rect x="100" y="100" width="2000" height="2400" style="fill:none;"/>
        <clipPath id="_clip1">
            <rect x="100" y="100" width="2000" height="2400"/>
        </clipPath>
        <g clip-path="url(#_clip1)">
            <g id="Coat-of-Arms" serif:id="Coat of Arms" transform="matrix(-1.001,0,0,1.0252,2100,100)">
                <path d="M1998,0L0,0L0,1268.04C0,1560.67 199.801,1755.75 399.601,1950.83C599.401,2145.92 999.002,2341 999.002,2341C999.002,2341 1398.6,2145.92 1598.4,1950.83C1798.2,1755.75 1998,1560.67 1998,1268.04L1998,0Z" style="fill:white;"/>
                <clipPath id="_clip2">
                    <path d="M1998,0L0,0L0,1268.04C0,1560.67 199.801,1755.75 399.601,1950.83C599.401,2145.92 999.002,2341 999.002,2341C999.002,2341 1398.6,2145.92 1598.4,1950.83C1798.2,1755.75 1998,1560.67 1998,1268.04L1998,0Z"/>
                </clipPath>
                <g clip-path="url(#_clip2)">
                    <g id="Saltire">
                        <g id="Bend-Sinister" serif:id="Bend Sinister" transform="matrix(-0.999002,0,0,0.975417,2097.9,-97.5417)">
                            <path d="M1750,100L2100,100L2100,400L450,2225L100,1925L1750,100Z"/>
                            <path d="M1750,100L2100,100L2100,400L450,2225L100,1925L1750,100ZM1763.32,130L142.912,1922.27C142.912,1922.27 447.341,2183.21 447.341,2183.21L2070,388.449C2070,388.449 2070,130 2070,130L1763.32,130Z"/>
                        </g>
                        <g id="Bend-Dexter" serif:id="Bend Dexter" transform="matrix(-0.999002,0,0,0.975417,2097.9,-97.5417)">
                            <path d="M100,100L450,100L2100,1925L1750,2225L100,400L100,100Z"/>
                            <path d="M100,100L450,100L2100,1925L1750,2225L100,400L100,100ZM130,130L130,388.449L1752.66,2183.21L2057.09,1922.27C2057.09,1922.27 436.68,130 436.68,130L130,130Z"/>
                        </g>
                    </g>
                    <g id="Macintosh" transform="matrix(-1.42715,0,0,1.39345,1712.57,271.723)">
                        <g id="Body" transform="matrix(1.0625,0,0,1,-34.375,0)">
                            <g id="Stand" transform="matrix(0.655738,0,0,0.811688,-945.256,-459.172)">
                                <rect x="1903.5" y="1674.5" width="610" height="77" style="fill:white;stroke:black;stroke-width:33.05px;"/>
                            </g>
                            <g id="Top" transform="matrix(0.974532,0,0,0.863636,15.6753,14.7727)">
                                <path d="M251,334.749L293.68,217.379C297.519,206.824 306.209,200 315.813,200L684.187,200C693.791,200 702.481,206.824 706.32,217.379L749,334.749C741.304,315.008 724.589,301.316 705.227,301.316L294.773,301.316C275.411,301.316 258.696,315.008 251,334.749Z" style="fill:white;stroke:black;stroke-width:26.22px;stroke-linecap:round;stroke-linejoin:round;stroke-miterlimit:1.5;"/>
                            </g>
                            <g id="Main-Body" serif:id="Main Body" transform="matrix(0.988235,0,0,1,8.82353,-12.5)">
                                <path d="M750,337.5C750,309.904 728.663,287.5 702.381,287.5L297.619,287.5C271.337,287.5 250,309.904 250,337.5L250,862.5C250,890.096 271.337,912.5 297.619,912.5L702.381,912.5C728.663,912.5 750,890.096 750,862.5L750,337.5Z" style="fill:white;stroke:black;stroke-width:24.38px;stroke-linecap:round;stroke-linejoin:round;stroke-miterlimit:1.5;"/>
                            </g>
                        </g>
                        <g id="Screen">
                            <g id="Screen-Border" serif:id="Screen Border" transform="matrix(0.9375,0,0,1.1,31.25,-90)">
                                <path d="M700,422.727C700,410.184 688.051,400 673.333,400L326.667,400C311.949,400 300,410.184 300,422.727L300,627.273C300,639.816 311.949,650 326.667,650L673.333,650C688.051,650 700,639.816 700,627.273L700,422.727Z" style="fill:white;stroke:black;stroke-width:24.46px;stroke-linecap:round;stroke-linejoin:round;stroke-miterlimit:1.5;"/>
                            </g>
                            <g id="Face" transform="matrix(1,0,0,1,0,-6.25)">
                                <g id="Left-Eye" serif:id="Left Eye">
                                    <rect x="375" y="425" width="25" height="50"/>
                                    <rect x="375" y="425" width="25" height="50"/>
                                </g>
                                <g id="Right-Eye" serif:id="Right Eye">
                                    <rect x="600" y="425" width="25" height="50"/>
                                    <rect x="600" y="425" width="25" height="50"/>
                                </g>
                                <g id="Nose" transform="matrix(1,0,0,1,18.75,12.5)">
                                    <path d="M500,400L500,500L450,500L450,475L475,475L475,400L500,400Z"/>
                                    <path d="M500,400L500,500L450,500L450,475L475,475L475,400L500,400Z"/>
                                </g>
                                <g id="Mouth" transform="matrix(0.833333,0,0,1,93.75,-5.14433e-12)">
                                    <rect x="412.5" y="550" width="150" height="25"/>
                                    <rect x="412.5" y="550" width="150" height="25"/>
                                </g>
                                <g id="Left-Smile" serif:id="Left Smile" transform="matrix(1,0,0,1,12.5,-5.11591e-12)">
                                    <rect x="400" y="525" width="25" height="25"/>
                                    <rect x="400" y="525" width="25" height="25"/>
                                </g>
                                <g id="Right-Smile" serif:id="Right Smile">
                                    <rect x="562.5" y="525" width="25" height="25"/>
                                    <rect x="562.5" y="525" width="25" height="25"/>
                                </g>
                            </g>
                        </g>
                        <g id="Logo" transform="matrix(1,0,0,1,0,25)">
                            <rect x="300" y="775" width="50" height="25"/>
                            <rect x="300" y="775" width="50" height="25"/>
                        </g>
                        <g id="Floppy-Drive" serif:id="Floppy Drive" transform="matrix(1.5,0,0,1,-350,25)">
                            <rect x="600" y="700" width="100" height="25"/>
                            <rect x="600" y="700" width="100" height="25"/>
                        </g>
                    </g>
                    <g transform="matrix(-0.979167,0,0,0.95605,1114.32,1987.79)">
                        <text x="0.993px" y="0px" style="font-family:'ArialMT', 'Arial', sans-serif;font-size:399.601px;">~</text>
                    </g>
                    <g transform="matrix(-0.979167,0,0,0.95605,433.928,1160.92)">
                        <text x="0.945px" y="0px" style="font-family:'ArialMT', 'Arial', sans-serif;font-size:399.601px;">#</text>
                    </g>
                    <g transform="matrix(-0.979167,0,0,0.95605,1782.96,1160.92)">
                        <text x="0.944px" y="0px" style="font-family:'ArialMT', 'Arial', sans-serif;font-size:399.601px;">//</text>
                    </g>
                    <g transform="matrix(-0.979167,0,0,0.95605,1184.49,379.297)">
                        <text x="8.806px" y="0px" style="font-family:'ArialMT', 'Arial', sans-serif;font-size:349.651px;">@</text>
                    </g>
                </g>
                <path d="M1998,0L0,0L0,1268.04C0,1560.67 199.801,1755.75 399.601,1950.83C599.401,2145.92 999.002,2341 999.002,2341C999.002,2341 1398.6,2145.92 1598.4,1950.83C1798.2,1755.75 1998,1560.67 1998,1268.04L1998,0ZM1968.03,29.262L1968.03,682.792L1968.03,1268.04C1968.03,1552.4 1771.37,1740.57 1577.21,1930.14C1401.65,2101.56 1069.59,2272.75 999.002,2308.17C928.411,2272.75 596.353,2101.56 420.793,1930.14C226.636,1740.57 29.97,1552.4 29.97,1268.04L29.97,682.792L29.97,29.263L1968.03,29.262Z"/>
            </g>
        </g>
    </g>
</svg>
