<svg width="2170" height="2553" xmlns="http://www.w3.org/2000/svg" xmlns:xlink="http://www.w3.org/1999/xlink" overflow="hidden"><defs><clipPath id="clip0"><rect x="1131" y="3" width="2170" height="2553"/></clipPath></defs><g clip-path="url(#clip0)" transform="translate(-1131 -3)"><path d="M1995.15 0 2.85221 0C1.61082 156.267 0.799095 195.322 0.369785 312.534-0.0468995 426.309-0.155129 566.773 0.274542 682.649-0.139255 863.791 1.42105 904.755 2.94817 1008.65 4.47529 1112.54 8.70599 1206.1 17.1692 1312.02 25.6324 1417.93 54.7779 1545.36 94.9636 1638.97 135.149 1732.58 192.516 1803.46 258.283 1873.68 324.05 1943.89 386.253 1996.84 479.256 2060.26 572.258 2123.68 729.835 2207.56 816.298 2254.2 902.762 2300.84 967.746 2325.62 998.038 2340.09 998.042 2340.39 998.047 2340.7 998.051 2341L999 2340.55 999.949 2341C999.954 2340.7 999.958 2340.39 999.962 2340.09L1181.7 2254.2C1285.67 2203.11 1425.74 2123.68 1518.74 2060.26 1611.75 1996.84 1673.95 1943.89 1739.72 1873.68 1805.48 1803.46 1862.85 1732.58 1903.04 1638.97 1943.22 1545.36 1972.37 1417.93 1980.83 1312.02 1989.29 1206.1 1993.53 1112.54 1995.05 1008.65 1996.58 904.755 1998.14 863.791 1997.73 682.649 1998.16 566.773 1998.05 426.309 1997.63 312.534 1997.2 195.322 1996.82 157.127 1995.15 0Z" fill-rule="evenodd" transform="matrix(-1 0 0 1 3202 73.9999)"/><path d="M1940.65 0 2.85234 0C2.22082 152.197 0.860112 196.866 0.443184 307.834 0.026255 418.801-0.257299 552.661 0.350766 665.805 0.958831 778.95 1.35791 878.023 4.09122 986.703 6.82384 1095.36 6.78078 1215.71 21.9005 1317.74 37.0202 1419.76 55.3381 1513.58 94.8095 1598.87 134.281 1684.16 181.254 1750.26 258.729 1829.47 336.203 1908.68 406.774 1960.63 496.064 2020.83 585.354 2081.03 714.404 2149.9 794.466 2190.67 884.094 2236.3 879.546 2231.31 971.961 2274 1052.83 2233.88 1109.9 2211.37 1194.87 2166.59 1292.16 2115.33 1395.77 2056.38 1478.37 1999.05 1560.98 1941.72 1632.55 1882.13 1690.5 1822.59 1748.45 1763.06 1791.72 1704.7 1826.06 1641.85 1860.4 1579 1882.54 1510.89 1896.54 1445.49 1912.45 1371.2 1917.51 1353.89 1924.46 1276.47 1931.41 1199.05 1936.67 1083.13 1938.26 980.972 1939.85 878.812 1941.26 784.256 1940.86 663.513 1941.27 551.08 1942.31 413.643 1941.91 303.249 1941.49 189.519 1942.27 152.458 1940.65 0Z" fill="#FFFFFF" fill-rule="evenodd" transform="matrix(-1 0 0 1 3177 109)"/><path d="M1531.17 85.6189 3046 1791.18C2999.08 1881.22 2845.87 2043.5 2734.86 2104L1211 387.238C1218.85 240.416 1214.13 236.119 1217.25 84.9999L1531.17 85.6189Z" fill-rule="evenodd"/><path d="M320.169 0.618946 1835 1706.18C1788.08 1796.22 1634.87 1958.5 1523.86 2019L0 302.238C7.85275 155.416 3.12544 151.119 6.25087 0L320.169 0.618946Z" fill-rule="evenodd" transform="matrix(-1 0 0 1 3189 84.9999)"/><path d="M1856 804.001 1920.48 663 2496.52 663 2561 804.001Z" fill="#FFFFFF" fill-rule="evenodd"/><rect x="1903.5" y="1674.5" width="610" height="77" stroke="#000000" stroke-width="36.6667" stroke-miterlimit="8" fill="#FFFFFF"/><path d="M1875.79 804.5 2539.22 804.5C2564.23 804.5 2584.5 824.781 2584.5 849.799L2584.5 1629.2C2584.5 1654.22 2564.23 1674.5 2539.22 1674.5L1875.79 1674.5C1850.78 1674.5 1830.5 1654.22 1830.5 1629.2L1830.5 849.799C1830.5 824.781 1850.78 804.5 1875.79 804.5Z" stroke="#000000" stroke-width="36.6667" stroke-miterlimit="8" fill="#FFFFFF" fill-rule="evenodd"/><path d="M0 163.286C26.1784 103.33 40.4506 70.8143 53.3605 44.9449 66.2705 19.0754 64.4059 18.0735 77.4589 8.06929 90.512-1.93494 127.09 1.49667 167.827 0.353281 208.565-0.790111 270.532 1.2093 321.885 1.20966L575.779 1.21038C630.725 1.21074 634.161-0.362644 651.517 6.35474 663.711 13.0714 666.005 15.0733 679.918 41.5143 693.832 67.9553 713.376 116.119 735 165" stroke="#000000" stroke-width="36.6667" stroke-miterlimit="8" fill="none" fill-rule="evenodd" transform="matrix(-1 0 0 1 2574.5 656.5)"/><rect x="1916" y="1527" width="90.0001" height="36.0001"/><rect x="2270" y="1405" width="222" height="36.0001"/><rect x="2127" y="1178" width="149" height="36.0001"/><rect x="2081" y="1140" width="43" height="36.0001"/><rect x="2276" y="1139" width="44" height="36.0001"/><rect x="2020" y="994" width="37.0001" height="60.9998"/><rect x="2363" y="993" width="36" height="60.9999"/><path d="M2195.83 979 2232 979 2232 1115 2195.83 1115 2195.83 1115 2165 1115 2165 1079.04 2195.83 1079.04Z" fill-rule="evenodd"/><path d="M1949.5 936.302C1949.5 915.424 1966.42 898.5 1987.3 898.5L2430.7 898.5C2451.58 898.5 2468.5 915.424 2468.5 936.302L2468.5 1255.7C2468.5 1276.58 2451.58 1293.5 2430.7 1293.5L1987.3 1293.5C1966.42 1293.5 1949.5 1276.58 1949.5 1255.7Z" stroke="#000000" stroke-width="36.6667" stroke-miterlimit="8" fill="none" fill-rule="evenodd"/><path d="M1840.5 819.786C1866.68 759.83 1880.95 727.314 1893.86 701.445 1906.77 675.575 1904.91 674.574 1917.96 664.569 1931.01 654.565 1967.59 657.997 2008.33 656.853 2049.06 655.71 2111.03 657.709 2162.38 657.71L2416.28 657.71C2471.22 657.711 2474.66 656.137 2492.02 662.855 2504.21 669.571 2506.5 671.573 2520.42 698.014 2534.33 724.455 2553.88 772.619 2575.5 821.5" stroke="#000000" stroke-width="36.6667" stroke-miterlimit="8" fill="none" fill-rule="evenodd"/><text font-family="Arial,Arial_MSFontService,sans-serif" font-weight="400" font-size="403" transform="matrix(1 0 0 1 1373.03 1320)">//<tspan font-size="403" x="1461.06" y="-13">#</tspan><tspan font-size="367" x="652.539" y="-850">@</tspan><tspan font-size="403" x="730.521" y="901">~</tspan></text></g></svg>